<svg width="31.000000" height="31.000000" viewBox="0 0 31 31" fill="none" xmlns="http://www.w3.org/2000/svg" xmlns:xlink="http://www.w3.org/1999/xlink">
	<desc>
			Created with Pixso.
	</desc>
	<defs/>
	<path id="Telegram" d="M15.05 27.09C18.24 27.09 21.3 25.82 23.56 23.56C25.82 21.3 27.09 18.24 27.09 15.05C27.09 11.85 25.82 8.79 23.56 6.53C21.3 4.27 18.24 3.01 15.05 3.01C11.85 3.01 8.79 4.27 6.53 6.53C4.27 8.79 3.01 11.85 3.01 15.05C3.01 18.24 4.27 21.3 6.53 23.56C8.79 25.82 11.85 27.09 15.05 27.09ZM15.05 30.1C6.73 30.1 0 23.36 0 15.05C0 6.73 6.73 0 15.05 0C23.36 0 30.1 6.73 30.1 15.05C30.1 23.36 23.36 30.1 15.05 30.1ZM10.36 16.81L6.6 15.63C5.79 15.39 5.79 14.83 6.79 14.42L21.44 8.76C22.29 8.42 22.77 8.86 22.49 9.95L20 21.72C19.82 22.56 19.32 22.76 18.62 22.37L14.78 19.53L12.99 21.26C12.81 21.44 12.66 21.59 12.38 21.63C12.09 21.67 11.86 21.58 11.69 21.12L10.38 16.8L10.36 16.81L10.36 16.81Z" fill="#101010" fill-opacity="1.000000" fill-rule="nonzero"/>
</svg>
