<svg width="31.000000" height="20.000000" viewBox="0 0 31 20" fill="none" xmlns="http://www.w3.org/2000/svg" xmlns:xlink="http://www.w3.org/1999/xlink">
	<desc>
			Created with Pixso.
	</desc>
	<defs/>
	<path id="VK" d="M0 1.99C0 0.96 0.57 0.4 1.72 0.32L6.15 0.35C6.45 0.35 6.65 0.5 6.75 0.8C7.2 2.33 7.71 3.65 8.28 4.76C8.84 5.87 9.58 7.14 10.49 8.59C10.57 8.77 10.7 8.86 10.88 8.86C11.02 8.86 11.13 8.79 11.21 8.65L11.3 8.31L11.33 3.03C11.33 2.67 11.24 2.42 11.07 2.3C10.91 2.18 10.59 2.09 10.14 2.03C9.78 1.96 9.6 1.74 9.6 1.35C9.6 1.27 9.61 1.21 9.63 1.17C10.05 -0.15 11.24 -0.81 13.2 -0.81L14.87 -0.85C15.62 -0.85 16.24 -0.65 16.74 -0.27C17.24 0.12 17.48 0.73 17.48 1.57L17.48 8.5C17.62 8.6 17.75 8.65 17.87 8.65C18.17 8.65 18.43 8.47 18.64 8.1C20.83 4.97 22 2.87 22.18 1.81C22.18 1.79 22.2 1.74 22.24 1.66C22.38 1.35 22.61 1.09 22.93 0.86C23.24 0.64 23.52 0.49 23.76 0.41C23.84 0.37 23.93 0.35 24.03 0.35L28.64 0.35L28.94 0.38C29.33 0.38 29.64 0.57 29.86 0.96C29.94 1.08 29.99 1.21 30.02 1.35C30.05 1.5 30.07 1.64 30.08 1.78C30.09 1.92 30.1 2 30.1 2.03L30.1 2.24C29.96 3.07 29.6 3.96 29.04 4.91C28.47 5.86 27.76 6.88 26.88 7.98C26.01 9.08 25.47 9.8 25.25 10.15C25.07 10.39 24.98 10.61 24.98 10.82C24.98 10.98 25.06 11.16 25.22 11.37L29.56 16.99C29.8 17.31 29.92 17.67 29.92 18.05C29.92 18.52 29.74 18.91 29.38 19.21C29.02 19.52 28.6 19.69 28.1 19.73L27.6 19.76L23.08 19.76C23.06 19.76 23.02 19.77 22.96 19.78C22.9 19.79 22.86 19.79 22.84 19.79C22.4 19.79 22 19.6 21.62 19.21C21.48 19.05 20.55 17.85 18.82 15.61C18.72 15.47 18.58 15.34 18.41 15.22C18.33 15.54 18.22 16.01 18.09 16.62C17.96 17.23 17.87 17.67 17.81 17.93L17.72 18.45C17.52 19.16 17.11 19.59 16.47 19.73L16.06 19.76L13.14 19.76C11.5 19.76 9.85 18.99 8.22 17.44C6.58 15.9 5.11 13.9 3.8 11.44C2.49 8.99 1.27 6.14 0.14 2.88C0.04 2.62 0 2.32 0 1.99ZM17.87 9.9C17.45 9.9 17.08 9.79 16.74 9.55C16.4 9.32 16.23 9 16.23 8.59L16.23 1.57C16.23 1.16 16.14 0.87 15.94 0.7C15.74 0.52 15.39 0.44 14.9 0.44L13.2 0.5C12.35 0.5 11.7 0.65 11.27 0.96C12.14 1.38 12.58 2.08 12.58 3.03L12.58 8.41C12.54 8.92 12.34 9.34 11.98 9.67C11.62 10.01 11.23 10.18 10.79 10.18C10.2 10.18 9.74 9.88 9.42 9.29C7.88 6.89 6.73 4.61 5.97 2.45L5.71 1.66L1.75 1.63C1.49 1.63 1.35 1.64 1.32 1.67C1.29 1.7 1.27 1.79 1.27 1.93C1.27 2.12 1.29 2.31 1.33 2.51L1.96 4.22C3.62 8.64 5.43 12.12 7.39 14.67C9.34 17.21 11.26 18.48 13.14 18.48L16.12 18.48C16.23 18.48 16.32 18.45 16.38 18.38C16.44 18.3 16.49 18.17 16.53 17.96L16.59 17.66L17.16 14.97C17.32 14.6 17.45 14.36 17.57 14.24C17.79 14.01 18.05 13.9 18.35 13.9C18.82 13.9 19.31 14.2 19.8 14.79L22.33 18.09C22.49 18.35 22.66 18.48 22.84 18.48L27.75 18.48C28.34 18.48 28.64 18.33 28.64 18.02C28.64 17.92 28.61 17.82 28.55 17.72L24.24 12.19C23.9 11.76 23.73 11.31 23.73 10.82C23.73 10.33 23.89 9.86 24.21 9.41C24.46 9.01 24.96 8.33 25.71 7.38C26.45 6.44 27.1 5.55 27.66 4.73C28.21 3.9 28.58 3.15 28.76 2.48L28.85 2.09C28.83 2.05 28.82 1.98 28.82 1.89C28.82 1.8 28.81 1.72 28.79 1.66L24.12 1.66C23.82 1.78 23.58 1.96 23.4 2.21L23.22 2.79C22.73 4.19 21.43 6.36 19.33 9.29C18.91 9.7 18.43 9.9 17.87 9.9Z" fill="#101010" fill-opacity="1.000000" fill-rule="nonzero"/>
</svg>
