<svg width="31.000000" height="31.000000" viewBox="0 0 31 31" fill="none" xmlns="http://www.w3.org/2000/svg" xmlns:xlink="http://www.w3.org/1999/xlink">
	<desc>
			Created with Pixso.
	</desc>
	<defs/>
	<path id="Whatsapp" d="M7.9 24.82L8.99 25.46C10.83 26.53 12.92 27.09 15.05 27.09C17.43 27.09 19.75 26.38 21.73 25.06C23.71 23.73 25.26 21.85 26.17 19.65C27.08 17.45 27.32 15.03 26.85 12.7C26.39 10.36 25.24 8.22 23.56 6.53C21.87 4.85 19.73 3.7 17.39 3.24C15.06 2.77 12.64 3.01 10.44 3.92C8.24 4.83 6.36 6.38 5.03 8.36C3.71 10.34 3.01 12.66 3.01 15.05C3.01 17.21 3.57 19.28 4.64 21.1L5.27 22.19L4.29 25.8L7.9 24.82ZM0 30.1L2.04 22.62C0.7 20.32 -0.01 17.71 0 15.05C0 6.73 6.73 0 15.05 0C23.36 0 30.1 6.73 30.1 15.05C30.1 23.36 23.36 30.1 15.05 30.1C12.39 30.1 9.77 29.4 7.47 28.06L0 30.1ZM9.61 7.98C9.82 7.97 10.02 7.97 10.22 7.98C10.3 7.98 10.38 7.99 10.46 8C10.7 8.03 10.97 8.17 11.06 8.38C11.5 9.39 11.94 10.42 12.36 11.45C12.45 11.68 12.4 11.97 12.22 12.25C12.1 12.45 11.97 12.64 11.83 12.81C11.66 13.03 11.29 13.43 11.29 13.43C11.29 13.43 11.14 13.61 11.2 13.83C11.22 13.92 11.29 14.04 11.35 14.14L11.44 14.28C11.83 14.93 12.34 15.58 12.98 16.19C13.16 16.37 13.33 16.55 13.52 16.71C14.23 17.33 15.02 17.84 15.88 18.22L15.89 18.22C16.02 18.28 16.09 18.31 16.27 18.39C16.36 18.43 16.46 18.46 16.56 18.49C16.66 18.51 16.77 18.51 16.86 18.47C16.96 18.44 17.05 18.37 17.11 18.29C18.2 16.97 18.3 16.88 18.31 16.88L18.31 16.89C18.39 16.82 18.48 16.76 18.57 16.73C18.67 16.7 18.78 16.69 18.88 16.7C18.97 16.7 19.06 16.72 19.14 16.76C19.94 17.12 21.25 17.69 21.25 17.69L22.13 18.09C22.28 18.16 22.41 18.32 22.41 18.48C22.42 18.58 22.43 18.75 22.39 19.05C22.35 19.44 22.23 19.9 22.11 20.15C22.03 20.32 21.92 20.47 21.79 20.6C21.64 20.76 21.48 20.91 21.3 21.04C21.24 21.08 21.17 21.13 21.11 21.17C20.92 21.29 20.73 21.4 20.53 21.5C20.15 21.71 19.72 21.83 19.28 21.85C19 21.86 18.72 21.89 18.44 21.87C18.43 21.87 17.59 21.74 17.59 21.74C15.45 21.18 13.47 20.12 11.81 18.66C11.47 18.36 11.15 18.04 10.83 17.72C9.49 16.39 8.48 14.95 7.87 13.59C7.55 12.92 7.38 12.2 7.37 11.46C7.36 10.55 7.66 9.66 8.22 8.93C8.33 8.79 8.43 8.65 8.61 8.48C8.8 8.3 8.92 8.2 9.05 8.13C9.23 8.05 9.42 7.99 9.61 7.98L9.61 7.98Z" fill="#101010" fill-opacity="1.000000" fill-rule="nonzero"/>
</svg>
